<?xml version="1.0" encoding="utf-8"?>
<!-- Generator: Adobe Illustrator 16.0.0, SVG Export Plug-In . SVG Version: 6.00 Build 0)  -->
<!DOCTYPE svg PUBLIC "-//W3C//DTD SVG 1.1//EN" "http://www.w3.org/Graphics/SVG/1.1/DTD/svg11.dtd">
<svg version="1.1" id="Layer_1" xmlns="http://www.w3.org/2000/svg" xmlns:xlink="http://www.w3.org/1999/xlink" x="0px" y="0px"
	 width="200px" height="200px" viewBox="0 0 200 200" enable-background="new 0 0 200 200" xml:space="preserve">
<g>
	<path fill="#FF0D54" d="M100,127.622l-7.756-7.061c-27.54-24.973-45.723-41.443-45.723-61.657
		c0-16.471,12.942-29.413,29.413-29.413c9.308,0,18.237,4.333,24.065,11.176c5.828-6.844,14.76-11.176,24.066-11.176
		c16.471,0,29.412,12.942,29.412,29.413c0,20.213-18.184,36.684-45.723,61.713L100,127.622z"/>
	<path fill="#FFFFFF" d="M75.576,60.38v-7.271c-9.222,0-15.295,2.818-19.909,9.027c1.86-8.859,6.999-17.687,19.909-19.481V35.59
		l13.274,12.375L75.576,60.38z"/>
</g>
<g>
	<path fill-rule="evenodd" clip-rule="evenodd" fill="#FF0D54" d="M119.908,143.799c-3.697,3.994-6.945,7.503-10.367,11.201
		c3.549,4.854,7.064,9.66,10.924,14.938c-4.193,0-7.902,0.061-11.605-0.064c-0.564-0.02-1.223-0.818-1.625-1.402
		c-1.639-2.38-3.193-4.815-4.834-7.314c-3.459,2.353-1.189,5.767-2.262,8.61c-3.569,0-7.286,0-11.169,0c0-12.146,0-24.274,0-36.589
		c3.76,0,7.463,0,11.423,0c0,5.491,0,10.926,0,16.358c0.232,0.151,0.465,0.302,0.698,0.452c1.512-1.651,2.969-3.362,4.57-4.927
		c0.607-0.595,1.537-1.18,2.34-1.207C111.75,143.729,115.508,143.799,119.908,143.799z"/>
	<path fill-rule="evenodd" clip-rule="evenodd" fill="#FF0D54" d="M147.895,160.226c-6.018,0-11.695,0-17.549,0
		c2.184,3.388,4.074,3.625,16.197,2.221c0,1.71,0.139,3.408-0.072,5.063c-0.08,0.618-0.889,1.472-1.52,1.642
		c-5.885,1.585-11.813,2.094-17.646-0.194c-5.697-2.233-8.471-7.257-7.803-13.859c0.637-6.289,4.266-10.42,10.381-11.302
		c2.578-0.372,5.299-0.365,7.877,0.006c6.4,0.92,10.059,5.373,10.131,11.87C147.906,157.036,147.895,158.403,147.895,160.226z
		 M137.816,153.96c-0.006-2.854-0.961-3.667-4.025-3.551c-2.602,0.1-3.504,1.044-3.34,3.551
		C132.906,153.96,135.361,153.96,137.816,153.96z"/>
	<path fill-rule="evenodd" clip-rule="evenodd" fill="#FF0D54" d="M63.736,132.664c0,2.963,0,5.851,0,8.738
		c0,5.48-0.002,10.962,0,16.443c0.002,4.352,0.184,4.521,4.7,4.202c0,1.111,0,2.207,0,3.305c0.001,4.377,0.015,4.53-4.413,4.932
		c-2.259,0.205-4.633,0.002-6.858-0.474c-3.298-0.707-4.985-3.414-5.026-7.72c-0.07-7.278-0.022-14.558-0.024-21.837
		c0-2.47,0-4.939,0-7.59C56.024,132.664,59.729,132.664,63.736,132.664z"/>
	<path fill-rule="evenodd" clip-rule="evenodd" fill="#FF0D54" d="M68.781,152.238c0.36-3.118,0.651-5.643,0.956-8.292
		c4.769,0,9.354,0,14.157,0c0,8.6,0,17.172,0,25.877c-3.749,0-7.394,0-11.443,0c0-3.53,0-7.003,0-10.475
		c0-1.113-0.028-2.228,0.006-3.34C72.528,153.703,72.899,151.19,68.781,152.238z"/>
	<path fill="#FF0D54" d="M76.337,141.388l-0.689-0.628c-2.448-2.22-4.064-3.685-4.064-5.481c0-1.464,1.15-2.614,2.615-2.614
		c0.827,0,1.621,0.386,2.139,0.993c0.518-0.607,1.313-0.993,2.14-0.993c1.464,0,2.614,1.15,2.614,2.614
		c0,1.797-1.616,3.262-4.064,5.486L76.337,141.388z"/>
</g>
</svg>
